<?xml version="1.0" standalone="no"?>
<!DOCTYPE svg PUBLIC "-//W3C//DTD SVG 20010904//EN"
 "http://www.w3.org/TR/2001/REC-SVG-20010904/DTD/svg10.dtd">
<svg version="1.0" xmlns="http://www.w3.org/2000/svg"
 width="1024.000000pt" height="1024.000000pt" viewBox="0 0 1024.000000 1024.000000"
 preserveAspectRatio="xMidYMid meet">
<metadata>
Created by potrace 1.16, written by Peter Selinger 2001-2019
</metadata>
<g transform="translate(0.000000,1024.000000) scale(0.100000,-0.100000)"
fill="#000000" stroke="none">
<path d="M4920 9634 c-19 -2 -84 -9 -145 -14 -60 -6 -114 -15 -120 -19 -5 -4
-50 -14 -100 -20 -93 -13 -242 -48 -260 -62 -5 -4 -68 -19 -140 -34 -99 -21
-168 -29 -290 -32 -160 -5 -160 -5 -249 27 -49 17 -95 38 -102 45 -8 7 -29 23
-48 35 -19 11 -38 30 -41 41 -11 34 -48 20 -58 -21 -31 -131 -58 -316 -70
-479 l-2 -34 -48 41 c-62 54 -98 56 -122 10 -13 -25 -18 -71 -22 -185 -3 -83
-9 -155 -12 -160 -3 -5 -37 -31 -76 -58 -99 -68 -179 -135 -384 -321 -90 -81
-320 -345 -364 -416 -9 -16 -34 -51 -55 -78 -66 -86 -140 -201 -260 -400 -47
-78 -172 -341 -172 -362 0 -7 -6 -25 -14 -40 -8 -14 -28 -73 -46 -130 -17 -56
-40 -121 -50 -143 -10 -22 -22 -58 -25 -80 -4 -22 -16 -71 -27 -110 -27 -91
-33 -144 -19 -158 8 -8 11 2 11 37 0 74 132 496 217 696 107 249 340 625 542
874 154 190 492 506 677 634 64 44 69 50 68 82 -1 19 3 91 8 160 9 120 22 180
38 180 4 0 36 -19 71 -43 92 -63 94 -63 86 -43 -10 26 9 214 38 368 38 203 28
187 81 138 45 -42 123 -82 223 -115 47 -15 77 -17 215 -12 157 5 168 7 421 71
295 75 470 104 665 113 281 12 565 -44 817 -162 129 -61 232 -134 341 -243 75
-76 106 -99 155 -119 213 -86 564 -284 768 -432 446 -325 778 -717 1029 -1215
135 -269 258 -581 296 -751 l14 -60 -5 60 c-6 64 -34 165 -46 165 -4 0 -15 33
-24 73 -10 39 -33 104 -51 144 -19 40 -34 77 -34 84 0 13 -32 82 -131 284 -85
173 -135 264 -160 291 -10 11 -19 24 -19 28 0 4 -30 50 -67 102 -38 52 -85
119 -106 149 -21 30 -42 55 -47 55 -6 0 -10 5 -10 11 0 34 -354 392 -451 456
-13 9 -28 21 -34 27 -5 7 -44 37 -85 67 -41 30 -104 76 -138 102 -35 26 -69
47 -75 47 -6 0 -18 7 -27 15 -30 27 -230 143 -330 191 -52 26 -120 59 -150 74
-30 16 -75 34 -100 41 -34 10 -65 34 -133 101 -152 151 -339 276 -454 304 -15
4 -30 10 -33 14 -8 11 -138 49 -209 61 -36 6 -71 15 -77 20 -21 17 -374 42
-464 33z"/>
<path d="M4875 9454 c-172 -13 -433 -64 -605 -118 -119 -38 -190 -47 -357 -47
l-156 0 6 -44 c4 -38 2 -45 -13 -45 -18 0 -185 113 -232 158 -25 23 -28 23
-34 8 -4 -10 -4 -88 -1 -174 4 -117 11 -178 27 -237 37 -135 37 -126 -1 -119
-52 9 -158 61 -206 100 l-43 35 0 -43 c0 -63 25 -205 47 -268 11 -30 38 -86
61 -124 l42 -68 -18 -57 c-14 -45 -17 -91 -16 -236 1 -190 9 -241 133 -824 11
-52 18 -98 16 -101 -3 -4 -19 -10 -37 -14 -45 -9 -118 -88 -142 -154 -51 -146
-34 -449 36 -615 60 -143 189 -287 291 -325 32 -12 61 -22 66 -22 4 0 13 -59
20 -131 23 -248 66 -398 140 -481 l32 -37 3 -156 c2 -151 1 -157 -20 -168 -42
-23 -509 -513 -558 -586 -75 -111 -129 -165 -187 -190 -28 -12 -124 -63 -213
-113 -411 -232 -664 -362 -991 -513 -104 -48 -318 -149 -475 -226 -157 -77
-291 -139 -298 -139 -9 0 -9 -6 3 -24 14 -21 16 -154 18 -1187 1 -640 -2
-1190 -6 -1222 l-8 -57 26 10 c14 5 114 17 223 25 338 27 324 25 343 64 l16
34 29 -54 c34 -63 -1 -59 339 -40 121 7 470 15 775 18 305 3 563 9 572 14 10
6 19 5 23 -1 4 -6 103 -10 265 -10 l259 0 3 37 3 38 22 -35 c13 -19 24 -39 26
-43 1 -5 101 -8 221 -7 211 1 219 1 236 22 15 19 20 20 46 10 99 -41 338 -55
444 -27 131 35 255 124 335 240 21 30 41 55 45 55 4 0 12 -11 18 -25 19 -41
147 -168 206 -204 84 -51 172 -73 296 -74 147 -2 265 37 367 119 23 19 44 34
46 34 3 0 24 -16 48 -36 86 -72 190 -109 341 -120 101 -8 213 13 298 56 l54
27 36 -23 c29 -20 56 -25 160 -34 297 -24 379 -27 440 -20 68 9 158 35 175 51
5 6 18 -2 31 -18 22 -28 24 -28 171 -34 227 -10 569 -38 659 -54 44 -8 85 -15
91 -15 6 0 8 115 5 338 -3 269 -7 339 -18 348 -12 9 -52 15 -266 40 l-48 6 0
68 0 67 103 7 c56 3 119 2 139 -3 36 -8 36 -8 27 16 -5 14 -10 174 -12 355
l-2 330 -112 -4 -113 -3 0 25 c0 14 -7 54 -14 90 -13 58 -13 66 2 78 9 6 29
12 45 12 17 0 81 9 143 21 l114 21 4 32 c3 17 7 157 10 311 3 154 9 299 12
323 l7 42 -54 0 c-63 0 -98 15 -604 253 -449 211 -836 400 -960 469 -55 30
-158 86 -230 123 -71 38 -141 76 -155 85 -14 10 -48 29 -76 43 -41 21 -62 43
-119 122 -38 54 -107 141 -154 194 -126 141 -441 461 -476 482 l-29 18 3 138
3 137 33 40 c74 92 98 168 130 424 14 106 25 197 25 202 0 6 14 10 32 10 51 0
113 37 177 105 110 118 177 261 201 432 16 109 8 341 -14 410 -20 63 -93 147
-141 163 -26 9 -35 17 -35 33 0 12 16 117 36 232 84 496 99 607 90 687 -23
207 -125 443 -232 537 -55 48 -138 91 -176 91 -22 0 -29 6 -34 28 -31 143
-122 261 -297 386 -118 84 -338 170 -517 201 -91 16 -357 27 -465 19z m369
-154 c109 -16 308 -75 403 -120 154 -73 243 -145 314 -254 45 -68 52 -97 12
-43 -29 39 -149 139 -195 163 -14 7 -75 35 -135 60 -263 112 -457 166 -657
181 -81 6 -93 9 -61 14 66 10 239 10 319 -1z m-295 -166 c230 -56 435 -239
497 -443 19 -63 17 -72 -7 -32 -51 85 -167 227 -221 272 -134 111 -221 157
-383 199 l-70 19 59 0 c33 1 89 -6 125 -15z m519 -55 c88 -71 172 -219 172
-302 0 -27 -7 -19 -53 61 -61 107 -122 187 -189 247 -26 23 -45 45 -42 47 12
13 57 -8 112 -53z m-1403 31 c33 -6 134 -15 225 -20 267 -15 400 -48 517 -128
121 -82 201 -184 250 -319 31 -85 25 -115 -9 -48 -33 64 -105 159 -159 210
l-42 40 28 -50 c16 -27 36 -61 45 -75 30 -43 62 -112 51 -109 -13 5 -159 195
-192 251 -50 85 -196 141 -464 178 -160 21 -407 78 -345 79 19 1 62 -4 95 -9z
m284 -336 c133 -33 248 -92 319 -162 62 -60 125 -142 117 -150 -2 -3 -29 16
-58 41 -69 59 -274 175 -407 231 -58 25 -121 51 -140 60 l-35 16 55 -6 c30 -4
97 -17 149 -30z m-881 -63 c43 -21 131 -43 297 -71 66 -12 124 -25 128 -29 5
-5 -17 -12 -50 -16 -51 -6 -112 -1 -260 21 -27 4 -43 3 -43 -4 0 -19 87 -128
141 -176 l54 -48 -63 32 c-79 42 -165 132 -215 227 -49 94 -49 95 11 64z
m2764 -60 c69 -44 122 -121 168 -246 71 -190 73 -217 45 -466 -14 -128 -26
-208 -75 -479 -11 -63 -23 -132 -26 -152 -4 -21 -10 -38 -15 -38 -14 0 -10
126 6 220 30 176 57 428 53 501 -2 62 -8 83 -30 117 -16 23 -28 44 -28 47 0 3
14 5 30 5 26 0 30 4 30 28 0 35 -42 98 -80 117 -16 8 -49 15 -75 15 -55 0 -58
12 -7 33 20 9 58 25 85 36 26 11 47 25 47 31 0 12 -53 78 -116 146 -29 31 -37
34 -87 34 l-56 0 26 40 c15 22 34 40 43 40 9 0 37 -13 62 -29z m-1895 -276
c28 -8 62 -24 75 -36 12 -11 17 -18 10 -14 -25 13 -212 6 -265 -9 -66 -19
-163 -81 -226 -144 -37 -37 -51 -62 -70 -121 -15 -47 -21 -87 -18 -110 l5 -36
-15 35 c-17 39 -13 156 7 224 24 79 149 180 260 210 72 19 174 20 237 1z
m-747 -30 c16 -8 53 -21 81 -28 l51 -14 -59 -21 c-76 -28 -95 -49 -91 -99 3
-34 6 -38 35 -43 l33 -5 -30 -45 c-40 -61 -39 -90 15 -405 43 -248 57 -415 36
-415 -11 0 -10 -5 -51 230 -17 96 -47 254 -67 350 -32 153 -37 192 -37 315 0
189 13 217 84 180z m2308 -328 c99 -31 104 -34 131 -77 37 -59 42 -80 50 -235
6 -110 12 -140 35 -195 39 -89 79 -210 73 -217 -13 -12 -128 22 -187 56 -36
21 -73 41 -84 45 -43 15 -174 16 -250 2 -91 -18 -454 -113 -476 -125 -8 -5
-14 -17 -13 -27 6 -41 -10 -47 -139 -52 -76 -3 -145 0 -181 8 -56 11 -58 12
-55 42 3 34 30 24 -262 101 -241 65 -409 83 -468 53 -15 -8 -49 -17 -75 -21
-40 -6 -48 -5 -53 11 -3 11 -11 29 -17 42 -8 17 -7 30 5 56 9 18 19 54 23 80
4 25 12 46 19 46 6 0 44 -9 85 -20 51 -14 105 -20 170 -20 l96 1 -68 35 c-37
19 -73 43 -79 54 -7 11 -18 20 -25 20 -30 0 -83 99 -103 193 -17 85 -8 104 67
139 60 28 71 30 191 31 141 0 179 -8 514 -113 l168 -52 122 41 c448 146 576
162 786 98z m-1378 -882 c41 -9 111 -31 155 -48 l80 -32 3 -60 c4 -86 -29
-265 -49 -265 -4 0 -50 29 -101 63 -201 137 -536 327 -577 327 -28 0 -7 20 27
25 20 4 44 8 52 10 38 10 341 -5 410 -20z m1386 14 c93 -16 179 -47 204 -74
22 -23 23 -30 17 -132 -5 -99 -29 -213 -44 -213 -4 0 -16 8 -27 18 -44 39
-461 294 -575 352 -29 14 -40 25 -33 32 22 22 356 35 458 17z m-2286 -119 c38
-63 41 -73 55 -206 19 -175 17 -255 -2 -114 -25 189 -32 211 -73 252 -46 46
-85 51 -102 13 -10 -21 -8 -27 7 -39 16 -11 16 -17 5 -51 -14 -42 -9 -153 11
-262 13 -75 64 -140 139 -178 42 -21 49 -29 54 -62 5 -36 9 -99 7 -116 -2 -17
-65 30 -119 88 -101 107 -150 236 -159 415 -9 193 15 295 76 326 37 19 60 5
101 -66z m2877 47 c12 -11 28 -36 35 -56 17 -54 14 -309 -5 -400 -32 -143
-111 -271 -206 -330 l-51 -31 0 30 c0 47 21 130 32 130 6 0 32 17 57 38 104
85 116 110 129 267 13 161 9 246 -11 259 -51 32 -122 -75 -143 -216 -7 -50
-16 -93 -19 -96 -9 -9 -5 164 5 219 12 63 58 164 90 197 24 26 51 23 87 -11z
m-1422 -137 c8 -7 15 -22 15 -34 0 -74 121 -341 191 -420 73 -83 211 -126 401
-126 183 1 290 34 398 126 54 45 73 74 114 174 10 25 -3 -104 -29 -280 -13
-91 -36 -259 -50 -375 -29 -225 -57 -335 -102 -403 -48 -70 -271 -310 -366
-393 -90 -78 -134 -104 -86 -51 14 15 65 72 115 127 198 219 297 366 338 505
9 30 28 125 41 210 13 85 27 171 30 190 5 31 4 29 -14 -14 -11 -26 -26 -56
-33 -65 -7 -9 -20 -29 -29 -46 -9 -16 -38 -70 -65 -119 -27 -49 -62 -114 -79
-145 -42 -79 -167 -271 -176 -271 -4 0 -13 16 -19 36 -7 19 -17 33 -23 31 -6
-2 -19 -28 -27 -58 -22 -72 -83 -187 -127 -238 -77 -91 -205 -145 -290 -122
-64 18 -88 43 -119 128 -15 43 -34 86 -42 95 -13 15 -11 18 14 23 49 11 142
57 168 84 l25 26 -255 0 -255 0 33 -28 c39 -33 120 -74 163 -83 l31 -5 -48
-100 c-56 -116 -83 -139 -165 -139 -76 0 -157 34 -213 89 -58 57 -146 202
-155 256 -16 99 -21 102 -56 34 -11 -22 -24 -37 -29 -34 -5 3 -18 25 -28 48
-11 24 -34 64 -53 89 -32 44 -45 64 -126 192 -91 145 -135 257 -158 399 -9 60
-15 110 -13 113 2 2 23 -14 47 -36 50 -46 53 -47 62 -23 4 13 -5 26 -38 51
-30 23 -43 40 -43 57 l0 25 38 -20 c21 -11 76 -30 123 -41 73 -19 102 -21 214
-16 150 7 225 24 312 73 97 54 168 168 238 384 20 63 38 117 40 119 22 21 135
22 160 1z m-1222 -372 c28 -66 57 -236 83 -478 22 -205 52 -338 99 -430 50
-98 295 -400 424 -523 33 -32 61 -61 61 -63 0 -3 -26 13 -58 34 -66 45 -385
368 -454 460 -74 99 -80 122 -152 647 -14 99 -28 212 -31 250 -3 39 -8 94 -10
123 -3 29 -2 51 3 48 5 -3 20 -33 35 -68z m267 -1358 c0 -14 9 -38 19 -54 11
-17 18 -35 15 -40 -3 -6 2 -2 10 8 9 11 16 14 16 8 0 -7 5 -12 11 -12 10 0 48
-39 49 -50 0 -8 157 -166 219 -221 49 -44 50 -46 25 -46 -34 0 -45 -18 -42
-72 1 -28 -2 -46 -10 -49 -7 -2 -10 -8 -6 -13 30 -49 -163 107 -241 195 -104
117 -107 124 -112 299 l-5 152 26 -40 c14 -22 26 -51 26 -65z m1800 -47 c-5
-73 -12 -143 -16 -155 -12 -40 -114 -167 -183 -228 -139 -123 -337 -248 -551
-347 -63 -29 -127 -60 -143 -68 -26 -13 -33 -12 -135 33 -103 45 -302 148
-302 157 0 5 46 -9 85 -26 19 -8 74 -12 155 -12 101 1 136 5 180 22 41 15 47
20 25 18 -22 -1 -30 3 -33 18 -5 25 -20 35 -54 35 -16 0 -28 4 -28 8 0 5 -12
12 -27 18 -20 7 -1 9 78 10 186 2 373 69 534 193 75 57 220 204 293 296 31 39
58 72 61 75 4 3 19 24 35 48 16 23 30 41 31 40 2 -2 -1 -63 -5 -135z m159
-358 c19 -153 22 -227 19 -380 l-4 -190 -48 -107 c-80 -180 -251 -459 -337
-553 l-42 -46 -43 81 c-73 137 -246 398 -309 468 -58 63 -193 162 -221 162
-33 0 -9 20 54 45 196 79 432 215 561 323 155 129 294 288 322 367 7 19 16 32
19 27 4 -4 17 -92 29 -197z m-2105 138 c45 -98 203 -271 351 -384 128 -98 358
-227 500 -280 30 -11 55 -23 55 -27 -1 -4 -26 -23 -57 -42 -110 -69 -199 -184
-408 -523 -49 -81 -92 -146 -95 -146 -3 0 -35 39 -73 88 -90 116 -196 287
-273 442 -50 101 -64 140 -73 203 -21 146 -9 416 26 624 10 56 18 102 19 102
2 0 14 -25 28 -57z m2502 -388 c124 -141 221 -298 309 -499 26 -60 106 -233
177 -385 71 -152 132 -282 135 -288 3 -9 -6 -13 -31 -13 -26 0 -39 5 -43 18
-16 41 -396 778 -463 897 -93 165 -121 207 -206 307 -38 45 -79 93 -91 107
l-22 26 9 -41 c5 -22 6 -53 1 -70 -7 -25 -9 -19 -16 41 -4 39 -11 88 -16 110
-5 22 -9 48 -9 58 0 20 116 -97 266 -268z m-2686 268 c0 -4 -7 -42 -17 -85
-15 -72 -33 -96 -33 -45 0 19 -5 17 -35 -18 -65 -74 -248 -357 -344 -531 -53
-95 -163 -310 -246 -478 -140 -285 -152 -305 -177 -305 -31 -1 -45 14 -29 32
5 7 33 65 60 130 210 490 348 771 441 897 67 91 357 410 372 410 5 0 8 -3 8
-7z m-679 -680 c-15 -27 -34 -59 -42 -71 -8 -15 -58 -45 -124 -77 -60 -30
-168 -86 -240 -125 -202 -111 -650 -337 -864 -436 -134 -61 -196 -94 -199
-107 -4 -15 -11 -18 -36 -13 -17 4 -59 10 -93 13 -35 3 -63 10 -63 14 0 15 79
55 400 204 327 152 557 265 720 355 52 29 185 99 295 156 110 57 211 110 225
118 45 26 50 18 21 -31z m3946 -60 c92 -47 218 -114 278 -148 114 -64 365
-189 565 -280 63 -29 203 -95 310 -146 108 -52 226 -107 263 -123 37 -15 67
-32 67 -36 0 -4 -17 -11 -37 -14 -124 -20 -119 -20 -156 8 -19 15 -74 44 -123
65 -196 85 -782 375 -995 492 -58 32 -141 74 -184 94 -43 19 -86 45 -94 57
-20 26 -71 118 -66 118 2 0 79 -39 172 -87z m-2979 -448 c55 -79 199 -235 226
-244 33 -13 69 6 96 49 43 68 185 269 190 269 3 0 20 -32 39 -71 19 -39 52
-91 73 -114 22 -24 37 -48 33 -54 -12 -20 -83 -265 -110 -380 -34 -148 -35
-150 -89 -195 l-46 -37 -35 31 c-69 60 -221 121 -304 121 -39 0 -51 4 -55 18
-33 113 -151 703 -161 807 l-6 60 53 -100 c29 -55 72 -127 96 -160z m1977 159
c-8 -43 -21 -117 -29 -164 -8 -47 -34 -173 -56 -280 -23 -107 -47 -223 -54
-258 -7 -34 -16 -65 -19 -69 -4 -3 -22 -8 -39 -10 -56 -6 -124 -32 -185 -72
-62 -40 -177 -157 -188 -190 -8 -25 -25 -28 -25 -4 0 28 -156 591 -185 668
-19 49 -23 71 -15 73 21 7 43 40 96 137 l51 95 67 -108 c37 -59 82 -131 99
-161 42 -71 57 -80 99 -59 52 25 169 134 207 194 20 29 41 54 48 54 7 0 13 7
13 16 0 9 27 59 60 111 33 53 60 101 60 106 0 6 2 8 5 5 3 -2 -2 -40 -10 -84z
m2643 -745 l-3 -134 -115 -31 c-63 -18 -139 -35 -167 -39 l-53 -7 0 -306 0
-305 88 7 c48 4 105 9 128 12 l41 6 6 -39 c4 -21 7 -80 7 -130 0 -109 11 -102
-155 -106 l-110 -2 -3 -271 -2 -272 32 -5 c42 -8 230 -22 242 -19 5 2 22 0 37
-3 l29 -7 0 -155 0 -155 -72 6 c-40 4 -140 13 -223 21 -82 8 -183 17 -222 20
l-73 7 0 967 0 966 188 38 c103 21 232 48 287 61 55 13 104 20 108 17 4 -4 6
-68 5 -142z m-7156 92 c68 -16 164 -37 213 -46 50 -9 113 -27 140 -39 64 -29
138 -95 171 -152 50 -86 54 -113 54 -449 1 -302 0 -315 -21 -360 -21 -44 -63
-85 -102 -98 -13 -5 -16 -11 -9 -24 5 -10 15 -47 22 -83 6 -36 38 -173 70
-305 33 -132 68 -283 80 -335 11 -52 23 -102 26 -111 4 -14 -12 -17 -118 -22
-68 -3 -126 -3 -130 1 -4 4 -22 77 -42 162 -19 85 -55 247 -81 360 -38 170
-65 265 -82 289 -1 2 -9 -2 -18 -9 -8 -7 -21 -10 -29 -7 -9 4 -16 -3 -20 -16
-3 -12 -6 -189 -6 -393 l0 -372 -72 -6 c-40 -4 -100 -9 -132 -12 l-59 -6 6 38
c4 22 7 486 7 1032 0 545 2 992 4 992 3 0 60 -13 128 -29z m818 -142 c52 -11
160 -29 240 -40 80 -11 171 -26 203 -32 l57 -12 5 -113 c4 -90 2 -114 -9 -118
-8 -3 -85 4 -172 15 -122 15 -160 17 -166 8 -4 -7 -8 -121 -8 -253 l0 -241
108 -7 c59 -4 122 -9 140 -13 l32 -5 0 -102 c0 -55 -4 -107 -9 -114 -6 -10
-35 -12 -134 -7 l-127 7 0 -281 c0 -220 3 -280 13 -277 6 3 83 7 170 11 l157
6 0 -139 c0 -136 -1 -140 -22 -146 -27 -7 -567 -30 -573 -24 -6 6 -8 1898 -2
1898 1 0 45 -9 97 -21z m5461 -26 c65 -29 113 -75 140 -135 l24 -53 0 -710 0
-710 -29 -53 c-48 -87 -141 -152 -244 -172 -49 -10 -425 7 -430 19 -1 3 -3
408 -5 899 l-2 892 45 1 c25 0 106 11 180 24 158 28 254 28 321 -2z m-4721
-78 c63 -8 192 -21 285 -30 241 -22 215 -6 215 -131 l0 -106 -110 4 -110 3 0
-746 0 -746 -117 -6 c-65 -2 -121 -3 -126 0 -4 2 -4 346 -1 763 7 740 7 758
-12 764 -10 3 -56 12 -102 20 -46 8 -86 17 -90 21 -7 6 -20 204 -14 210 2 2
18 2 35 -1 18 -2 84 -11 147 -19z m3898 -19 c55 -28 104 -78 129 -134 15 -33
18 -101 21 -697 3 -658 3 -660 -18 -718 -30 -79 -69 -120 -153 -162 -93 -45
-160 -53 -261 -31 -96 22 -177 75 -226 147 l-35 51 -6 202 c-4 110 -5 404 -2
651 5 510 6 513 79 594 104 116 340 164 472 97z m-2986 -46 c193 -16 279 -50
338 -132 49 -68 58 -119 63 -373 5 -270 2 -283 -87 -361 -31 -26 -56 -53 -56
-59 0 -37 187 -702 209 -743 11 -21 10 -22 -21 -22 -18 0 -79 -3 -134 -6 -60
-3 -104 -2 -108 4 -3 5 -40 143 -81 307 -42 164 -82 312 -89 329 -11 28 -16
31 -59 31 l-47 0 0 -333 0 -333 -127 3 -128 3 1 28 c0 15 1 399 2 853 l2 826
108 -7 c59 -4 155 -10 214 -15z m2154 -13 c28 -14 69 -46 91 -71 60 -68 73
-122 73 -297 l0 -148 -116 -3 c-64 -2 -118 -1 -120 1 -2 2 -4 57 -4 120 0 131
-8 153 -67 177 -46 20 -97 9 -133 -28 l-30 -30 0 -539 c0 -529 0 -539 20 -559
44 -44 115 -52 168 -20 32 20 32 20 32 98 0 44 3 107 6 141 l7 61 119 0 120 0
-4 -187 -3 -188 -31 -55 c-58 -101 -213 -179 -332 -167 -173 19 -294 111 -337
260 -14 48 -15 126 -13 628 l3 574 24 49 c68 142 212 220 391 212 67 -2 96 -9
136 -29z m-1118 -9 c81 -25 141 -79 182 -162 l30 -61 1 -600 c0 -589 0 -602
-21 -657 -55 -147 -223 -235 -399 -209 -136 21 -224 78 -276 182 l-26 49 1
608 c0 334 4 623 9 642 13 57 37 95 91 143 47 43 122 76 200 90 41 8 141 -4
208 -25z"/>
<path d="M4800 6241 c0 -6 -5 -11 -11 -11 -6 0 -25 -14 -42 -31 l-31 -31 37
-32 c84 -71 106 -86 120 -80 9 3 23 2 32 -3 12 -7 2 -12 -37 -22 -29 -7 -93
-26 -143 -41 -49 -16 -145 -43 -213 -59 -68 -17 -136 -40 -152 -51 -28 -20
-61 -93 -48 -106 3 -3 21 4 39 15 43 27 69 27 69 1 0 -23 26 -39 100 -58 74
-20 756 -29 872 -12 120 17 173 36 186 65 13 29 38 32 70 9 28 -19 42 -11 42
25 0 62 -53 87 -300 141 -52 11 -140 35 -195 52 -55 17 -107 33 -115 35 -9 3
4 12 30 22 86 33 174 102 154 120 -5 5 -27 15 -49 22 l-40 14 33 3 c17 2 32 7
32 13 0 13 -58 11 -159 -6 -72 -13 -101 -14 -153 -4 -115 21 -128 22 -128 10z
m401 -367 c73 -14 184 -32 247 -40 63 -7 117 -16 120 -18 12 -13 -110 -18
-243 -11 -291 15 -410 15 -577 -1 -167 -16 -325 -13 -312 7 3 5 18 9 34 9 26
0 238 35 390 65 102 20 198 17 341 -11z"/>
<path d="M1648 2521 l-3 -341 91 0 c85 0 93 2 118 26 l26 27 0 251 c0 232 -2
253 -20 283 -22 36 -76 67 -135 77 -22 4 -48 9 -57 12 -16 5 -18 -18 -20 -335z"/>
<path d="M7560 2743 l-35 -4 0 -659 0 -660 76 0 c71 0 79 2 108 29 18 17 31
39 31 53 0 12 2 279 4 593 3 613 4 604 -48 639 -24 15 -57 17 -136 9z"/>
<path d="M6751 2647 c-13 -6 -33 -24 -44 -38 -19 -26 -19 -45 -18 -585 2 -620
-3 -580 70 -611 36 -15 81 -10 119 13 l22 14 0 588 0 589 -23 21 c-27 25 -87
29 -126 9z"/>
<path d="M3935 2325 l0 -277 73 6 c86 7 129 27 146 66 14 35 11 393 -5 421
-15 30 -58 46 -139 54 l-75 7 0 -277z"/>
<path d="M4819 2561 l-29 -29 0 -542 0 -541 26 -24 c38 -36 104 -43 148 -16
19 12 37 29 41 39 4 9 9 254 12 544 l6 527 -35 35 c-32 32 -42 36 -88 36 -44
0 -56 -4 -81 -29z"/>
<path d="M6590 8685 c0 -4 14 -26 31 -51 42 -61 96 -179 110 -239 19 -82 36
-107 127 -175 139 -105 462 -439 462 -479 0 -3 -135 -5 -300 -3 l-299 3 -5
-23 c-11 -51 -22 -148 -18 -153 3 -3 173 -5 377 -5 l372 0 20 -22 c47 -53 160
-261 233 -429 l38 -89 -451 -2 c-365 -2 -451 -6 -449 -16 1 -7 5 -47 9 -88 6
-69 8 -75 31 -81 14 -3 128 -3 254 1 125 3 332 3 458 -1 l230 -6 16 -56 c9
-31 25 -83 35 -116 17 -50 79 -341 79 -366 0 -4 -280 -7 -622 -5 l-622 3 -21
-25 c-102 -122 -192 -213 -235 -236 -28 -15 -50 -31 -50 -35 0 -25 -30 -244
-39 -281 -23 -96 -50 -168 -95 -245 -37 -65 -46 -89 -46 -128 0 -47 2 -51 98
-155 53 -58 131 -142 173 -186 43 -45 133 -147 202 -227 69 -80 148 -166 175
-191 65 -57 200 -149 322 -218 52 -30 129 -75 171 -101 42 -26 112 -65 155
-88 43 -22 93 -49 109 -60 17 -12 35 -21 41 -21 24 0 144 183 259 395 93 173
219 525 260 730 42 204 55 333 62 576 9 348 -22 629 -103 924 -135 491 -452
1048 -812 1426 -90 95 -250 232 -407 351 -141 105 -335 218 -335 193z"/>
<path d="M3130 8522 c-193 -146 -484 -427 -611 -592 -431 -557 -652 -1068
-729 -1681 -17 -140 -23 -453 -11 -609 13 -181 52 -427 90 -579 76 -298 272
-714 434 -923 37 -48 53 -52 90 -24 18 13 66 42 107 66 41 23 109 64 150 90
41 26 142 87 225 136 177 104 289 196 405 330 102 117 280 312 408 446 l93 97
-4 59 c-2 40 -11 69 -26 90 -35 50 -87 171 -106 247 -21 87 -45 237 -45 290 0
38 -2 41 -48 59 -57 24 -129 97 -217 219 -51 71 -64 84 -67 66 l-3 -22 -597
-3 c-329 -1 -598 -1 -598 2 0 3 16 76 35 163 37 164 71 289 99 355 l16 38 467
-3 468 -4 6 85 c3 47 4 88 3 91 -2 4 -201 7 -441 8 -241 1 -438 3 -439 4 -1 1
22 52 51 113 58 123 197 362 232 400 l22 24 356 0 c278 0 355 3 354 13 0 6 -6
46 -13 87 l-12 75 -284 3 c-157 2 -286 5 -288 7 -13 13 339 391 443 476 59 48
64 55 70 103 4 28 14 68 22 89 15 36 14 39 -5 60 -11 12 -25 34 -31 50 -13 33
-26 33 -71 -1z"/>
<path d="M8283 4807 c-46 -137 -80 -224 -115 -297 -17 -36 -37 -79 -44 -96
-16 -39 -91 -175 -172 -313 l-61 -104 147 -74 c80 -41 178 -88 217 -103 136
-55 402 -179 603 -282 l202 -103 3 -430 c2 -424 2 -431 24 -472 l23 -42 -33
-5 c-17 -3 -68 -11 -112 -18 -67 -10 -74 -13 -46 -18 28 -4 36 -11 43 -35 5
-16 8 -160 7 -320 -3 -399 -5 -375 30 -375 23 0 30 -5 35 -27 4 -16 9 -237 13
-492 l6 -464 -79 7 c-43 4 -205 11 -359 16 -660 22 -675 23 -685 35 -9 11 -22
10 -68 0 -102 -23 -174 -27 -342 -15 -192 12 -282 25 -326 46 -31 15 -38 14
-131 -17 -92 -31 -107 -33 -248 -33 -173 -1 -233 11 -359 74 l-79 39 -91 -44
c-111 -53 -199 -75 -297 -75 -195 0 -349 57 -481 180 l-52 47 -70 -58 c-136
-114 -311 -179 -485 -179 -95 0 -221 17 -300 41 -33 10 -43 9 -57 -2 -14 -12
-149 -14 -823 -15 -816 -2 -2620 -13 -2655 -17 -18 -2 -18 37 -20 1300 l-1
1301 -22 30 -22 29 29 21 c101 75 448 259 778 414 152 71 280 132 284 136 4 4
-22 59 -58 122 -89 156 -207 400 -234 485 -28 86 -74 184 -65 140 4 -16 13
-43 21 -60 7 -16 23 -61 35 -100 11 -38 29 -86 39 -105 10 -19 44 -89 75 -155
32 -66 67 -133 79 -150 42 -57 99 -166 90 -174 -5 -5 -40 -21 -79 -36 -38 -15
-86 -36 -105 -45 -19 -10 -78 -38 -130 -63 -136 -63 -289 -140 -405 -202 -55
-29 -131 -69 -168 -89 -72 -38 -182 -110 -191 -125 -3 -5 2 -28 12 -52 16 -41
17 -131 17 -1339 l1 -1295 499 1 c275 1 1045 3 1710 4 666 1 1240 6 1277 11
53 7 93 4 190 -12 262 -45 470 -2 656 135 34 25 62 50 62 55 0 5 9 13 21 16
15 5 25 1 35 -13 20 -29 136 -110 192 -133 26 -12 61 -27 78 -35 70 -31 252
-43 360 -23 60 11 68 14 188 68 76 35 93 37 121 18 11 -7 36 -19 55 -27 19 -7
49 -19 65 -26 58 -25 111 -35 215 -41 122 -6 223 7 328 43 l74 25 61 -19 c34
-11 103 -25 154 -32 125 -16 403 -17 481 -1 40 8 68 9 75 3 7 -5 93 -12 192
-15 622 -19 938 -26 948 -20 7 4 8 150 4 473 -6 396 -9 471 -23 498 -9 19 -23
32 -34 32 -18 0 -19 15 -22 353 -2 226 1 355 7 359 6 4 29 8 53 8 60 0 80 21
63 64 -26 63 -30 128 -30 523 l-1 401 -267 132 c-148 73 -277 136 -288 140
-11 4 -65 28 -120 53 -55 25 -111 49 -125 52 -14 4 -41 16 -60 26 -19 10 -56
27 -83 39 -26 11 -69 34 -95 51 -26 16 -66 35 -89 41 -24 6 -43 15 -43 21 0 5
15 33 33 61 19 28 39 66 46 84 8 17 17 32 22 32 5 0 24 30 42 68 17 37 35 69
39 72 4 3 21 37 38 75 17 39 42 90 55 115 13 25 29 65 35 90 7 25 23 70 37
100 25 55 67 190 60 196 -1 2 -17 -38 -34 -89z"/>
</g>
</svg>
